# xmcd
#
# Track frame offsets:
#	150
#	11281
#	20697
#	32076
#	47176
#	60582
#	71421
#	87032
#	102214
#	115468
#	125717
#	134010
#	145402
#	158366
#	169795
#	178822
#	194073
#	206529
#	218880
#	230742
#
# Disc length: 3198 seconds
#
# Revision: 1
# Processed by: cddbd v1.5.2PL0 Copyright (c) Steve Scherf et al.
# Submitted via: audiograbber 1.83.01
#
DISCID=270c7c14
DTITLE=Various Artist - 100 Essential 1960's [Disc 3]
DYEAR=2008
DGENRE=Pop
TTITLE0=Dusty Springfield - Son Of A Preacher Man
TTITLE1=Brian Poole and The Tremeloes - Twist And Shout
TTITLE2=The Merseybeats - I Think Of You
TTITLE3=Ella Fitzgerald - How High The Moon
TTITLE4=Acker Bilk - Stranger On The Shore
TTITLE5=Len Barry - 1-2-3
TTITLE6=The Dells - Charles Stepney I Can Sing A Rainbow/Love Is Blue
TTITLE7=Eric Burdon and The Animals - San Franciscan Nights
TTITLE8=The Four Tops - Reach Out, I'll Be There
TTITLE9=Eden Kane - Well I Ask You
TTITLE10=Marianne Faithfull - Summer Nights
TTITLE11=The Bachelors - Diane
TTITLE12=Manfred Mann - The Mighty Quinn
TTITLE13=Fontella Bass - Recovery
TTITLE14=The Caravelles - You Don't Have To Be A Baby To Cry
TTITLE15=The Fortunes - You've Got Your Troubles
TTITLE16=Mary Wells - My Guy
TTITLE17=Dave Berry - The Crying Game
TTITLE18=Martha Reeves and The Vandellas - Dancing In The Street
TTITLE19=Tom Jones - It's Not Unsual
EXTD=
EXTT0=
EXTT1=
EXTT2=
EXTT3=
EXTT4=
EXTT5=
EXTT6=
EXTT7=
EXTT8=
EXTT9=
EXTT10=
EXTT11=
EXTT12=
EXTT13=
EXTT14=
EXTT15=
EXTT16=
EXTT17=
EXTT18=
EXTT19=
PLAYORDER=
